<svg xmlns="http://www.w3.org/2000/svg" viewBox="0 0 24 30" fill="none" x="0px" y="0px"><path fill-rule="evenodd" clip-rule="evenodd" d="M5 9C5 12.5265 7.60771 15.4439 11 15.9291V18C11 18.5523 11.4477 19 12 19C12.5523 19 13 18.5523 13 18V15.9291C16.3923 15.4439 19 12.5265 19 9C19 5.13401 15.866 2 12 2C8.13401 2 5 5.13401 5 9ZM17 9C17 6.23858 14.7614 4 12 4C9.23858 4 7 6.23858 7 9C7 11.7614 9.23858 14 12 14H12.0013C14.7621 13.9993 17 11.761 17 9Z" fill="black"/><path d="M6 20C5.44772 20 5 20.4477 5 21C5 21.5523 5.44772 22 6 22H18C18.5523 22 19 21.5523 19 21C19 20.4477 18.5523 20 18 20H6Z" fill="black"/><text x="0" y="39" fill="#000000" font-size="5px" font-weight="bold" font-family="'Helvetica Neue', Helvetica, Arial-Unicode, Arial, Sans-serif">Created by HideMaru</text><text x="0" y="44" fill="#000000" font-size="5px" font-weight="bold" font-family="'Helvetica Neue', Helvetica, Arial-Unicode, Arial, Sans-serif">from the Noun Project</text></svg>